<mxfile host="65bd71144e">
    <diagram id="6sGddcq-U0sEN5g_Ga9p" name="Page-1">
        <mxGraphModel dx="2568" dy="1342" grid="1" gridSize="10" guides="1" tooltips="1" connect="1" arrows="1" fold="1" page="1" pageScale="1" pageWidth="1700" pageHeight="1100" background="#333333" math="1" shadow="1">
            <root>
                <mxCell id="0"/>
                <mxCell id="199" value="Untitled Layer" parent="0"/>
                <mxCell id="200" value="" style="shape=stencil(hZPdboMwDIWfJrdWsBMHX3fteyCVjmgMKkq39u0bGpU1SMnujM/5/KMYRbtL15xbhfoyT+NX++uPc6foQyH6oWsnP4dI0V7R7jRO7ec0Xodj/D43i3OJvsefpcItcpUA2YVCfY8ZDUaeiUP09374x6913r+qL3sF6Ep2wdQeChT88qq2+hnq0vgWKG2ADojzQJiX0g4kwIWFw0jGJIBFsIUVjAXLCcAWDOYBroAlAZwDpDwQ5DpdumYwVR4I8mYkcaALI4kF2byDLt/Fm772YHAJEYK/sz35vo9X/65vzzyk4i9C+wc=);fillColor=none;sketch=0;hachureGap=4;fontFamily=Architects Daughter;fontSource=https%3A%2F%2Ffonts.googleapis.com%2Fcss%3Ffamily%3DArchitects%2BDaughter;fontSize=20;" parent="199" vertex="1">
                    <mxGeometry x="631.8000000000002" y="129" width="6.199999999999818" height="204.25" as="geometry"/>
                </mxCell>
                <mxCell id="201" value="" style="shape=stencil(hdLbDoMgDADQr+G1KeUmz277DxN1kjk16m5/PwlZJk7dWyk9pA1lIh2qrCsY4TD27aV4uHysmDgwItdURe/GKWLiyERatn1x7ttbk4dzl/lKH13bu3/hGRwCokeEr0XiFMpr18zKjQUuo3rFQdE2sBKsiYBWn8w6UEBxR0aC1DuAQ6JiYECrbcDxZ2iLwHeEJUjiqa0AstsgkUA8BgZQbgOtweoIzLpcFwIE/hFT8P330tV1WJv5/XJPplTYMXF8Aw==);fillColor=none;sketch=0;hachureGap=4;fontFamily=Architects Daughter;fontSource=https%3A%2F%2Ffonts.googleapis.com%2Fcss%3Ffamily%3DArchitects%2BDaughter;fontSize=20;" parent="199" vertex="1">
                    <mxGeometry x="641" y="92" width="342" height="231" as="geometry"/>
                </mxCell>
                <mxCell id="202" value="" style="shape=stencil(lZPbDoMgDIafhtsGqJyunXsPE3WSOTXqTm8/CHGbLrpwV1o++qf9IZiOdd6XhNNxGrpzebfFVBM8EM5tW5eDnVxEMCOYVt1Qnobu2hbh3Of+po8u3c2/8AgcoxQo9Rinz5B6J44BaGz7D0AWBSAYFQUwBKrjCANKxoliwJMoIkFQcaqEhERsE0aC1gtAahA7y9BqLs+AMoC4DSi27uCeMDuSJF93MBrkDuCHIparoPuO+pmScZIWm3DBx7+VbZpg/+/62u8uFf4KZi8=);fillColor=none;sketch=0;hachureGap=4;fontFamily=Architects Daughter;fontSource=https%3A%2F%2Ffonts.googleapis.com%2Fcss%3Ffamily%3DArchitects%2BDaughter;fontSize=20;" parent="199" vertex="1">
                    <mxGeometry x="1228" y="167" width="4" height="327.75" as="geometry"/>
                </mxCell>
                <mxCell id="203" value="" style="shape=stencil(hZXbcgIxCIafZm8ZEnKAa9u+hzOudadWHbWnty923Wqo0rsYP7J/wg90NDus5ru+i3g47rcv/cewOK46euhiHDarfj8cddXRY0ez5XbfP++3b5vF+Hs3P5Gn1ev2/XTC5xiHgHgKivg1bmTI+WfjacTXw6bBUzA4lft4AKkGD87pBbDFExS5jzOkbPCcHDERpBg+OmoCA7VyCNi5rB6X2PDJ4SkAtvpVoHNdqsDJ8MnRnwgqGR6jwwuQNHxwvZDTlMwLj+zwFXL7/gjFcwNaO6BrthKgiuFDcPgIHAx/LobbPEG2vKsnWf2/Cb/Hs80XOX4uWi7Wz57/S4Xa+pMBHb6iPT8QoGPQqv5tDRpkSsntgALUKlJJXoNgzWjbrrQoipMzJtuBklZRdQL0kVpTZ20zzhckTG8yBRR2y15UUmwCanV9JAVCmwdO7rOKXrH9guBUercDGLi9g2jn9QLEvpL8c2kBbjOtO8Vr1vhnMl1tnUN0cZlry2G9Hsfi9f92DurWOEPp8Rs=);fillColor=none;sketch=0;hachureGap=4;fontFamily=Architects Daughter;fontSource=https%3A%2F%2Ffonts.googleapis.com%2Fcss%3Ffamily%3DArchitects%2BDaughter;fontSize=20;" parent="199" vertex="1">
                    <mxGeometry x="1218" y="150.75" width="407" height="346.75" as="geometry"/>
                </mxCell>
                <mxCell id="204" value="" style="shape=stencil(fZLdDoMgDIWfhtumtCJy7bb3MNFNMqfGub+3H4boxEXuSunXHsoRnN/roq8E4X0cumv1suVYCz4IItvW1WBHFwk+Cs7P3VBdhu7Rlv7cF1PlFN2659Th7TkExAki/PiExCV18kBj2xVAoGQAmBQM7ddr0OEAQ8Byv14u7WYgk2CyiCAGDBVpFX0B/wFpAsT7QJKAVAGgGEjvA0pBFgKJjC4p/Xs0I+jIBO0AEwDuJ1VkS5kB3qwVdESR0XO7RRFgpP/KNjOw9ZELfi4826bxJl7fb13rUt7xfPwC);fillColor=none;sketch=0;hachureGap=4;fontFamily=Architects Daughter;fontSource=https%3A%2F%2Ffonts.googleapis.com%2Fcss%3Ffamily%3DArchitects%2BDaughter;fontSize=20;" parent="199" vertex="1">
                    <mxGeometry x="1255" y="455" width="371.5" height="65" as="geometry"/>
                </mxCell>
                <mxCell id="205" value="" style="shape=stencil(jVbLctswDPwaXXdIgg/gnKb/kZk4taaunXHcNvn7QlWlGrQN5yaJu5QWWKw40MPb9ul1M6Twdjoevm9+j8+n7UBfhpTG/XZzHE96NdDjQA8vh+Pm2/Hwc/88378+Tcjp6sfh17TD+8wLCGEipfAxPyBGzn+ffJ3xu3Fv8NXiM0H4Nj5BLL4ESLyNr2jZ4GtAc/AM7vAViW7jY0JuhtAKiiMgVkSrgDOqRxAUS5CIKk6J9JOKJTTk4BAIHA0hhrWPn2QIo3mEhGntnKCddESo6mBFMKE6RooZ0jVibc11QgBzb42SPCtxZ1X9RkcCLUVfR6FBnP0TgrWemvFfDT63v9asORVSE1i9kdC8AmUksT1DdUZHP4iqLag7OpRQbYt1A2cQckLsBCwVu4ovEUIG75u6xj67IsjDc79/caNlCoZuzHQqvCyKvWBVkKpDKMvySvBbxgKyniPfQ0JIF/kbnSZLBdmxLHfewMuYry5ikKPhLKvWyc8ozuCILL5fCbLE0y0RbDvNCew0QhM62kaw7w39B3SByg3NCZfWLn4jAnam+dKtd34jl+NwJ7ILIVjRsibI9YEufaJKATl9UHNSR9CIcSKDSu8+JVTvDYRSfYJe/D/8vIy73Xx2Ol/vD0v6aD5o0eMf);fillColor=none;sketch=0;hachureGap=4;fontFamily=Architects Daughter;fontSource=https%3A%2F%2Ffonts.googleapis.com%2Fcss%3Ffamily%3DArchitects%2BDaughter;fontSize=20;" parent="199" vertex="1">
                    <mxGeometry x="1308" y="441.5" width="55.125" height="48.125" as="geometry"/>
                </mxCell>
                <mxCell id="206" value="" style="shape=stencil(lVbLctswDPwaXTEkQJDgOU3/IzNxak9dO+M4bfP3gepSMSgJiW+ytUvhsVhioLuX7cPzZsDwcj4df27+7B7P24G+DYi7w3Zz2p31aaD7ge6ejqfNj9Px9fB4+f38MCLHp1/H3+MJfy+8GCCXkYXh7f8/ESj/++f7hbDfHa4JCXK6hYDcXjeCQK3reGKo0eALRFrHpwAYDD5DLA5egKrBa0ZOPJyByOAJMK7jcwLsKgrFib9o/GjwAUpy8AyxdnhkBy+Qc4cPYR0vEWK64XwhyHhDvsIguat/cvIVgWDzlabARXzV9Lr6JyB0CAjBBqQZoJNBJRCrOA1JHAlVBu4klIG9HEqvoZSaypcJAmyHhrWNjkprBbRJc4HghVShsB0zbMJdNoow6Wxi5GY2X2XocOTbvlH8Zi8xVGC3McRX+LxUMs3sGiHY7sknGi/AduZqhOzpgwHtEI0i9nJAIBuSHkGOoDRisrZRfY0LQrZDMWblGeXM+FT16OhJ5db14aPQa1bP0hPYISQV9OwLxTFLKr3ZX8lr+fqUVsUvfkLtWmYEL+v5jV59K9CdIVp3qql57nIjoHZV0hOckWMo3Tj485N6fJncbbkLUGwTCgI752Mb98nIdEdxlBrbBT55qx9PaAvRhKcmxBU82nom3y5mBpb8lWcWf/IvRIZk7xLyB1MFlGwDdOkTZwiivraDSX6FNAW2JaXobhmEvQV/smbo2plsE2Z7pz58rN1Pu/3+srVfv+/XdP3rsuLT/Ts=);fillColor=none;sketch=0;hachureGap=4;fontFamily=Architects Daughter;fontSource=https%3A%2F%2Ffonts.googleapis.com%2Fcss%3Ffamily%3DArchitects%2BDaughter;fontSize=20;" parent="199" vertex="1">
                    <mxGeometry x="1243.625" y="404.25" width="50.375" height="50.625" as="geometry"/>
                </mxCell>
                <mxCell id="207" value="" style="shape=stencil(lVfZctpAEPwavXbtMXs9O85/uMo4UCHgwuT6+wwRklmtaIk3IdSanZ7pnlHnnz62L++bzpmP8+n4ffN793redv5L59zusN2cdme96vxz55/ejqfNt9Px5+G1//3+cnnycvXj+Ovyhj89LnvYcEE587e/IwG+/L/ztQfsdwcK8AXJ3QekhDQBJEggAANvakCEpPuAKDAyBeR8HxACTHwEIIIi06SNvQ/wHsnWtDoEkrTziHXSkhAIrVYQ6whBK0MKF5HqFKKBIzlbWFc/n2HI+w1MnUAKsIxTSKmezxYhkvM4+LpoOVKGWkqLQSIn8gGljlD0FSSCFEjNaQlDK87XwKG4RyIoh9ca3eRgiBY+ORlZCsgkgh7ATWg1sCSH0ug5abOzwpmmNWJEJEnMIEJGJoj2UMEiMYDA18Qu+V4ekhwBBuIJwKA0NmbJkZJFqRWtLuJJBBXwlcUR4Hi/ZvhJBKH92ipiwfdU1aluP7XOyFymtTGtA1PE0Acre6mxmZRpBmFgcJRDGXxnPgEPmSg00vHW2tJNu6/1pUTV0Na5ODgSoe2kBTNue1WnQ2LycTA1rwt1zgmx9laxyKRX86jfsVctHKl0K1DnkAhLbdI2DwNgJa0LgHag6FgNpNIqx6tDjACBZYuJLleTCNosJELbrgu06omdmwIKAdiEkh+JYAvspHDaLKRbdZfx9XRYqLT+LZPCxUFSKyMUFGLdbQqBT8SAVNdZhrG90pUSXd7a5UrvmIe2sUtKxPZao9eN1BEttJQuTDel3E2mG9/q9TvE5EcAM58BMuwd88PEItaepIdkNhnisDOv1LPuRVI3hsopkc6bAYxErz0S9eE2Zz7dZJTivef14vPz9W233/dfv7f/Tz939Vb/qeyf/wE=);fillColor=none;sketch=0;hachureGap=4;fontFamily=Architects Daughter;fontSource=https%3A%2F%2Ffonts.googleapis.com%2Fcss%3Ffamily%3DArchitects%2BDaughter;fontSize=20;" parent="199" vertex="1">
                    <mxGeometry x="1272.75" y="430" width="11.125" height="17.625" as="geometry"/>
                </mxCell>
                <mxCell id="208" value="" style="shape=stencil(lVbLbhsxDPyavRKSKIniOY//CBCnXtS1A8dJ278vtxuvTTk7QG77GEokZzjSwHdv26fXzZDC2+l4+Ln5PT6ftgPfDymN++3mOJ7saeCHge9eDsfNj+Phff88v78+Tcjp6dfhY1rhzxynlMoUlMLf+UMMgUL4/+lxDtiN+6uARlpdgArFhvCffxd8JCnr+ErZJ9QyJbB+oSIeHyindbytlh1emFpcxycSdfhaSXkdH/v8a6AC8g89vmSSivCf7JzxWUkyyidGjy9UQf6ZQodPxADfKPv+s1IB/MZMjX2AUAAFWEalCzAOQYe49iVwJAYpZdOo17RVxUATRmnyJJgMUUoSe9WZrlBKk4i97KJSA11qQq0bZIG8aTqP4RKQSUFKanPimY7p7AVrO3TExaUNX9ewKHnxCtjVVntvMStC61vPfVMLBdAiaSReSFYwkIUUEi8LGz4F+Nybr7EOrNecSmOHR1Zt+dysD1Uq38u/GZ3S9aeA/rRyLm8ZTFKBemh+Lgu0djXv8vxiPdjJxcnhFzP7Gr842+WwpIC8Lty4tY2AAspsi+RTsqlMgIPbGmKlhnbIVLsiFB5Ql/P6yrsykoVZkafBDvWIrhRM4muwwW9YeJ07cn+psIfLledl3O3mG9P1//6KZJ/m6xU//AM=);fillColor=none;sketch=0;hachureGap=4;fontFamily=Architects Daughter;fontSource=https%3A%2F%2Ffonts.googleapis.com%2Fcss%3Ffamily%3DArchitects%2BDaughter;fontSize=20;" parent="199" vertex="1">
                    <mxGeometry x="1264.625" y="315.5" width="112.125" height="94.5" as="geometry"/>
                </mxCell>
                <mxCell id="209" value="" style="shape=stencil(lVbRchoxDPyae92xLMu2ntP0PzITUphSyBDaJn9f0ZtLKwMaePP5tJYl7Uqe+OFt/fS6mnJ6Ox7231e/N8/H9cRfppw3u/XqsDnaauLHiR9e9ofVt8P+5+55/n59OlmeVj/2v04nvM+4CpITKKePeYMVlf/ufJ3tt5tdZF8YpV63V1Bz9kKhPTG0O0A1gASAijYAKjhfB2RCKg7QCloJAAJhB+gMbtcBnJCyAyhBegCw87wHbcvOZUCBeA+UzGkKXXTyLjr0viAYOcprAdGYJg2ipoaivhCWBwoANHqoGSkAFGj15EuQwD5B7xLDZ8oXe6N7C3JK6D5g25FADA3dn0+yVPGaFpLXgqVMA4BRO/kMddSgxsa7QTsCDqRjzSF5YmfkIGBrDuLPT+F9pKO3wT5SQRW0PNj34PxmjPD2vGT4sr2MFa6QgBDdwvOMpoQSAWSUgFEiBxF3BfsKG+co6KeaUX1KjRMUiEDtAh7AFnTkoUI9KYosU+IyoIO9LsUahQYARR7KQLFw0pmU22f/uxlh/SzwYZe6b4xYnqqPoreQHDZlhoZq1W9B6bq1bE8OTeFQMH6TbzDmU4NKnAvO+BXxVerSIG6cnSWj0QjgaNimJSc3Bm0aHsbCWVpt8e+B9bLZbuf32f//xweZbc2POX78Aw==);fillColor=none;sketch=0;hachureGap=4;fontFamily=Architects Daughter;fontSource=https%3A%2F%2Ffonts.googleapis.com%2Fcss%3Ffamily%3DArchitects%2BDaughter;fontSize=20;" parent="199" vertex="1">
                    <mxGeometry x="1377.75" y="276.875" width="52.875" height="60.875" as="geometry"/>
                </mxCell>
                <mxCell id="210" value="" style="shape=stencil(lVjLctswDPwaXTEkQYDkOU3/IzNxak/dOOM4ffx96TpWDaIBypsseQkssHhIC969bh9eNksKr6fj4evmx+7xtF3w05LS7nm7Oe5O/WrB+wXvng7HzZfj4e358fL75eH8z/PVt8P38wk/LzhsgHhGpfDr/U6BVP7c+XwB7HfPtwBWgAAhfAxIFSgLQCoQmgGIgCQtIMRkAAKkJAHNtBALtCoAmSCTAWCo0iVKUHCGAwdo0YzSu8crwObQ0xQkh2InLlfAKAAVgfPHAGpAkkO1o9Q9ZpYAO0qlAtMMh8pAMtPFDmutUKRLnK+s/hNAFWKdcYkiVEOttXscZsRX4pXiCrBJc3dAWkCbAwUgngH0xynMuJQYWpEAOw+64rJdDwWqNEC2AQQc/m+fT8AyzWy3vQqtzZwfEbKsZ3J6UoMYZiLUKfMAsJWqk4Z2x9BNrB+BPGMhzfbV5ESJruetHGzSMUCcqrYMeUi0Y+A6y1Yh2ZRXma0tz0kCpKFr2+crYVdHqBGSnOfNIaxK2QF0CrnMuKR154y2roEsG15xGl4CGqatHVVtgW0LqUGSunMmVU9clXlgRxiq/tmuHQ0ozqqXoQzj2an/6cQhFBml5lRnBJJaas6a1CDLsMZgs6YCKMPU7FT3gm8yTM1Odc9TLCNryyUN8FY3tTLUWdJOqntXZJnqYpPW+6pjoW8UTWau2n0m4/XxCnC0oSw0uwtoDo76CKHJceWqT23pnvq0mOyaY/UCV+1E6IXVWev7RAuStdMs/wGwo6RdIpu0tuDtnwx52K6cdxn9HuC8mhCgrKBsq69PzSoBzlrfCEhGCW0LXWpVjkVn4btR8ypwO66NgYeKsKu6LxdhSLXZ+vp6FGQXsM/XynB6cRg7pTOxVM9wXmTUFxwVoH7x9/vP026/v3w+un0+fi/qty7fmvD+Nw==);fillColor=none;sketch=0;hachureGap=4;fontFamily=Architects Daughter;fontSource=https%3A%2F%2Ffonts.googleapis.com%2Fcss%3Ffamily%3DArchitects%2BDaughter;fontSize=20;" parent="199" vertex="1">
                    <mxGeometry x="1410.625" y="309.875" width="11.125" height="13.75" as="geometry"/>
                </mxCell>
                <mxCell id="211" value="" style="shape=stencil(lZbZchshEEW/Zl5vQTfN8uw4/+Eqy9FUFMkly1n+PihTdtSgaWre0IgDvVwuTPzwtn963U3k3i7n0/fdr/n5sp/4y0Q0H/e783ypo4kfJ354OZ13386n9+Pz8vv16TrzOvpx+nld4ffCeefg3BUj92f5JAmR/n35uhCH+XhDFIckCogR4teB7CF6hyTwYR1IFSgKyARv7FADCEkDAjJ2qCkSK6B4BF4HQoFvgAhfDIBAOulS4GQdYEEOCrhpzX3CIYYtW1Bs6zpIggIobykTEUSHlANSNAAP1iElW33k2s4lh5DXAV9ronOIDDZy8AmF9IGIiMkA4keKn8AgJIHTOQRbrp6Rtb6DRzGkcRewGrd9h4CgXSAMynov6WQc6lpWrxsXbHnXxrEWnwxC6qQhGWJ1uiA21udQrJBya31SIIa872hpUKWuDzIIqZprbPtgiS9/iP9zvm1LNV5dVB5YALJ2ALKb4CB6faraNSrU3W9kx9+t7weOBPZ6vp2vtBeDrysYbtHVf3AKCKmxL9tbulNjh1Mdu+h4bLPrL52tt5q9PjOEN8Tf37N2uzi39UkI1vyC3OhnkHAPtIKug//vt5f5cFief7f/t++9+ml5K/LjXw==);fillColor=none;sketch=0;hachureGap=4;fontFamily=Architects Daughter;fontSource=https%3A%2F%2Ffonts.googleapis.com%2Fcss%3Ffamily%3DArchitects%2BDaughter;fontSize=20;" parent="199" vertex="1">
                    <mxGeometry x="1392.375" y="292.875" width="21.625" height="26.25" as="geometry"/>
                </mxCell>
                <mxCell id="212" value="" style="shape=stencil(lVXLcsIwDPyaXDWy5Id8pu1/MEMomVLCBPr6+ypNA7EpmunNGG0krXathlen3frYNoSn89C/tB/d5rxr+KEh6g67dujOemr4seHVth/a56F/O2ym38f1GDmeXvv38QufEy4TUBhRhF+/NwIu/dw8TYB9d1gAxEGmAuAQAfE+ImQIvk6B4T7AO0hVTQji7wM4AJU1SYBsZCAClgKQ7K6dA+YCEBNkoyQPWFYUAiQ2WgDGIt7TTMKf8Zo9FvGM4KPRQITkCgDp1MSgSIDLqTkCb3XsQKohAJMhizgzfo0n4/tJ63V1QWwrNclNy4ZQRWbRLEglY2gqy2oKSkIwAJpBypICQTBIEp1qSWp0EI0eopKY/yPUcKNUJTpnQ6nag6sBljtV23JTEhpNq9mklF5Ek1ZNgDWraJjhIoOF2Swl8Wzdiy5sc6owUyntsUSjYwr1E6l+dYY7PdZmc7ZUg9QPDEN0pvCojLe9s1gCV0D5IOnhuoW23X4/LbHl//XW0qtp4/HjNw==);fillColor=none;sketch=0;hachureGap=4;fontFamily=Architects Daughter;fontSource=https%3A%2F%2Ffonts.googleapis.com%2Fcss%3Ffamily%3DArchitects%2BDaughter;fontSize=20;" parent="199" vertex="1">
                    <mxGeometry x="1293.25" y="243.25" width="174.25" height="163.75" as="geometry"/>
                </mxCell>
                <mxCell id="213" value="" style="shape=image;verticalLabelPosition=bottom;labelBackgroundColor=#ffffff;verticalAlign=top;aspect=fixed;imageAspect=0;image=https://www.regencychess.co.uk/images/how-to-set-up-a-chessboard/how-to-set-up-a-chessboard-7.jpg;" vertex="1" parent="199">
                    <mxGeometry x="364.26" y="27" width="1046.37" height="1046.37" as="geometry"/>
                </mxCell>
                <mxCell id="214" value="" style="shape=stencil(lVjLbhsxDPyavRIS9aLOafofAeI0Rl07cNzX35dbQ4pFOePktl5ztCRFDkdawt3r88PLZmH3ejoevm9+bx9Pz0v4sjBv98+b4/akT0u4X8Ld0+G4+XY8/Nw/nn+/PKyW69OPw691hT9nnGdyvKLY/T2/CZmS+//m6xmw2+4xIFJMEFDjCPCUCgAEqnUAcCWfASA2jztAiAUAEsU8AjIxA0CmbL4QsUvFBs1MAQVdKRuXHAlwiX1brwF0CYcAgdyYVnUSBc2pbVMHaN4QQLM+Bq1biYLWQvB+BODS0FJL4xcqFWQvFMasFir+ffvoqcpgn9q2XLdPtlRji+iqfXI2pUwSgL3GO/rjSUBzJqFk9pgcWD+zrWtHDOLNuS33Zu+AP7lSLJ9YvyhXOOM/V2Cv+U8mn6h+irSeetsvAUQhmu7Rfy1xkE+JVMb8rHSJPqD1ODVlBIDqKJuIGYZQA/nRJY2hgJzW1ELsfJ0gT9RCfmxKbaMMJkIVWxWxUAJlUbWMRpdSIAZ95l2vy44QygChn5CRirQ3Cop68kmbQyKMmsdeLo4iAmRb3CXA7qmdnjsgN85/rzbSGLQ2SERZ8u3vDqjNyev1LVTHLGlLFQRQj03HBUgB0iuhAzppXgc48mNaJZEgUsoUxvpWJwWxkpLQuA/a5hXUUhbbo2veQJZysHNNeQERk1Z/HPtBtzIBl7TBopm0DEdPFCsvamx5uw6YiEnrN4MY5mG+dgiIIQQ7DWuXZdcFTCU2WdJ9APNkHR9j8SktFPQFZwXDBVW9pyStzruFUA3Cn4lCRZfpuRt5mlSGbkREMsDKPCUeJHvitA0eRsytfy/6DfnjG7NfcAySSW4iYoGy0FEwTK+UBNp5Glaqm1Bhz/bpxvrGn+zh5JniTVqEID9KJdN4LsCeG6N3e/UQEGqw5wrVCw5RS1ut20eoYJL1/4aAyVYVhgrzI3ZEhQLPp9WeclSBIVE4N7BSX0UbxnYcBIYR60GuTIf4DFKqR0U31lxwjTU+esTWpCKNV5qQ+KCw9dKm9kevCW7fjejD283K03a3O1/MXP5vb2L01fkWJ9z/Aw==);fillColor=none;sketch=0;hachureGap=4;fontFamily=Architects Daughter;fontSource=https%3A%2F%2Ffonts.googleapis.com%2Fcss%3Ffamily%3DArchitects%2BDaughter;fontSize=20;" vertex="1" parent="199">
                    <mxGeometry x="582.5999603271484" y="880.4000244140625" width="104.79998779296875" height="77.80000305175781" as="geometry"/>
                </mxCell>
                <mxCell id="215" value="" style="shape=stencil(lVrLchs3EPwaXlF4P86O8x+ushypokguWUnsv09vWFgSDW5DvEnkzgIzmOnuGfAUPv14/PL94eTtj/e31z8f/n36+v54Cr+dvH96eXx4e3rHX6fw+RQ+fXt9e/jj7fXvl6/n/79/2Z7c/vrr9Z/tDT/PdjWa4jcrb3+dPynN+Pz/J7+fDZ6fXq4NvGnuLgNrQhkNqqnt2KAUUwIbxCIMUn/flYFzwsCZSk4X48SWcjLFjgbR1HpskKopcTTwxnlhYE3Jg0Eupgmno+8u7gbBuHBsEAIbpGKyPTbw0cQ0GjiTRVhd7sfUDWIyQYS1mTouEJqJYkfJxDExQjROeWD86DFWtCJE1iR6PslDs8aOWeGdzOzp/a7J9zuTRn8R4Sqe91wHLpomsjSaVMfngwmilDMnhPMmRlH6ptL+ndwPvk6RF/Aq42KHnisPVBE41HniEJUkQmqNt3edQTCWDkEfMqJKW/IaKpDEBKhI0yqiFDxHCa+IIk9RVpkKLZgsDjoUY8fMxidFrQB8HA02PFNwh1ojbMk9WW4bOHYa6OXEScOgjCskoJdAFxjkMTVS6wVyZECpAchWuQSnI2F8MV4UEPDTE7HtmHN0cJmoE/mrTjqZRgYaI7fMoS3lzu+3DaxpxLVFci1gJowFtKD/jUcKbykpHvEdI67oP6oSnTWPlWzu4MOIfDlrIMu95HcD29H2yCCPK6Qo6wFbInZDxRXlA+h8rDiko6pp8A8pEiCV4mekBqU3XpGFD3N6w6soVoBgqcRAwSQBZAhiGKFyL8HbFOr7hvdzk5iBvIkEYxKUNqkc73h+1v96P7X11138zaI4GzTJWAkgXCs0RksshJ1uFxp0MrGb1uYNLowuL9LO2UnoLTIbS+RxT4vaaZUhCYlVBQ63zFo4OylkWmAxDC5R1FBrZ/CrFkbJjBqmJkkjPXA9EjXsMHhUDH5q9JTB1hLle7aU8gTcQRsgNUYNnZsEjBgnAEhS484iADKjaU4nMbZAenB6IDHWuldHBm4EGXjltWqghnvR6cEHN4YVr7BKZkzKB2ShUGCWe16nBlyM45Yg9ZVqiIU1rtciYBOo1GvUjiNH5EPp7XRNo+MPjQ2UoISoyI635IXTqDjiw61LFsk3j1YQVi+itM1FKKxFigAUJFEi8F61P4AZbn+qaQqXHNf0ojmZB1ALuIcBJV/WrfpFb+5ApmcTiFIjjdu6NLhtUBm9a5ZNIhRtGldoe6982yAykIHri0o+2zNnN2iSdme4v+L6oxqlMGFPajgJFKABAiRRVjjjueQQ16jwvvLUZMGKaO/ruKWscSY47n9S7W3gB4V6rH3WdzTTqIT3tWf80Qo0JF7NNHwv4Q8O60JmJFtM00BB7R5pDEIh2k0yqCBlTx70+eAH2WHvJY5m1gSsuhSAQLnc8X4AN83Enca8CcKiHD+jJ3cjudXeStx+HnhExb/A1Km3QssbVPPWuHnzetAAA6rMxeCt7LPFPUZOKjFo7jZmNdIqqKjmLtT2LF10rNMxZD0lvsFtC42Br4mqfJ9kH2kMSzdKemI6y55Lr3JEJIzB+kYpeT64xY0SeIRXcBK0Y+DkuxTgB/FrcXBASBqWLFIDxMMXRJqfkf3U20ctGWaDoEXJzIUgO0memVEPNa30KsJqab7v9Axqmis7fXBzS7m41Jg7k8VFDrpc0nrOySkO0pvC6qy8bEyJtd7KYKq47fZIlSgKaLorUnAPPvQkAJKOUpnu3zSQwWBODdnwJR6xQjMo5Js1wEIm4eBoxIKSqkpCWwbjxdUPlCA5vaCsmLjikPCqDQBGUP8WFxp9mgUAl1T/hppOd10uzYNoBFrNZed7lqTVHoCMBrMwUPIHgpjvuxYruGkQ5ful3JGoJ5hZ/IDgcj2/G9get9sG09XPRCj44/Lbl29Pz8/nn85cf8+/lcFH59/ZhM//AQ==);fillColor=none;sketch=0;hachureGap=4;fontFamily=Architects Daughter;fontSource=https%3A%2F%2Ffonts.googleapis.com%2Fcss%3Ffamily%3DArchitects%2BDaughter;fontSize=20;" vertex="1" parent="199">
                    <mxGeometry x="557.7999725341797" y="878.4000549316406" width="117.79998779296875" height="86.80000305175781" as="geometry"/>
                </mxCell>
                <mxCell id="xm8IKeJNuRck3iTjAVJ0-199" value="Untitled Layer" parent="0"/>
                <mxCell id="1" parent="0"/>
            </root>
        </mxGraphModel>
    </diagram>
</mxfile>